<?xml version="1.0" standalone="no"?>
<!DOCTYPE svg PUBLIC "-//W3C//DTD SVG 20010904//EN"
 "http://www.w3.org/TR/2001/REC-SVG-20010904/DTD/svg10.dtd">
<svg version="1.0" xmlns="http://www.w3.org/2000/svg"
 width="668.000000pt" height="668.000000pt" viewBox="0 0 668.000000 668.000000"
 preserveAspectRatio="xMidYMid meet">
<metadata>
Created by potrace 1.11, written by Peter Selinger 2001-2013
</metadata>
<g transform="translate(0.000000,668.000000) scale(0.100000,-0.100000)"
fill="#000000" stroke="none">
<path d="M339 4563 c-1 -10 -2 -29 -4 -43 -1 -14 -5 -59 -9 -100 -3 -41 -9
-103 -12 -137 -6 -66 -8 -85 -19 -228 -4 -49 -12 -93 -17 -96 -6 -4 -5 -8 3
-11 12 -4 12 -8 1 -20 -9 -11 -10 -18 -2 -23 6 -3 7 -11 4 -17 -7 -10 -11 -55
-13 -131 -1 -28 -4 -36 -13 -31 -10 6 -10 5 -1 -8 7 -8 11 -17 9 -19 -2 -2 -7
-44 -10 -94 -4 -49 -10 -115 -13 -145 -8 -83 -11 -117 -18 -215 -3 -49 -8
-106 -10 -125 -3 -19 -7 -64 -9 -100 -4 -60 -11 -137 -21 -250 -2 -25 -7 -81
-10 -125 -4 -44 -8 -90 -10 -102 -2 -13 2 -23 8 -24 7 0 32 -2 57 -4 25 -2 47
-4 50 -5 3 -1 16 -1 30 -1 14 1 37 -2 52 -8 18 -7 29 -6 37 2 6 6 11 7 11 1 0
-5 15 -9 33 -10 36 0 185 -12 262 -20 28 -3 71 -5 98 -6 26 0 47 -4 47 -7 0
-4 21 -7 48 -8 148 -1 163 -3 156 -15 -6 -10 -5 -10 8 -1 8 7 17 10 20 7 3 -3
34 -7 68 -9 38 -2 66 -8 71 -17 6 -10 9 -10 9 0 0 16 47 16 53 0 4 -10 6 -9 6
1 1 11 4 11 18 0 14 -12 16 -12 8 0 -5 9 -4 12 2 8 5 -3 47 -9 94 -12 46 -4
94 -8 106 -10 27 -4 34 5 35 45 1 16 4 27 9 25 6 -4 5 17 -1 35 -3 7 -2 29 5
93 4 37 10 55 17 51 7 -5 8 -2 2 7 -10 15 -13 109 -3 109 3 0 5 17 4 38 -2 26
2 39 14 44 14 6 14 7 -2 7 -12 1 -16 5 -10 13 4 7 6 26 4 42 -2 20 1 26 10 21
8 -6 10 -4 4 6 -11 16 -14 49 -6 49 3 0 6 27 6 60 0 33 3 60 7 60 9 0 15 -134
5 -138 -4 -2 -7 -8 -7 -13 0 -6 4 -8 8 -5 5 3 9 -22 10 -55 0 -33 4 -63 7 -68
3 -5 -3 -17 -12 -27 -16 -16 -16 -17 -1 -11 14 5 16 0 14 -39 -1 -24 0 -44 3
-44 3 0 6 -15 7 -32 1 -18 2 -59 2 -92 l2 -58 138 6 c75 4 155 8 177 11 22 2
81 6 130 9 50 3 124 8 165 11 165 12 225 13 238 2 10 -8 12 -7 10 2 -2 9 8 14
28 15 30 1 36 -7 22 -29 -4 -6 4 -12 19 -13 36 -3 39 -8 17 -34 -14 -17 -15
-19 -2 -9 9 7 21 10 27 7 5 -4 7 3 3 16 -3 13 -1 19 5 15 5 -3 26 -7 46 -9 21
-1 37 -5 37 -8 0 -4 12 -7 28 -7 73 1 103 -3 96 -14 -5 -8 -2 -9 11 -2 10 6
28 7 44 2 14 -5 52 -11 84 -15 31 -3 57 -8 57 -12 0 -4 19 -8 43 -9 23 0 56
-3 72 -6 17 -3 47 -5 68 -6 21 -1 36 -4 34 -8 -6 -9 59 -10 68 -2 3 4 8 21 10
40 9 70 15 115 19 134 3 11 5 33 5 48 1 20 5 26 14 21 8 -5 8 -2 -2 9 -13 16
-8 22 13 18 5 -1 4 5 -4 13 -10 13 -10 19 1 33 8 9 9 14 4 11 -7 -4 -9 6 -7
28 2 18 7 32 11 30 3 -2 7 15 7 37 1 23 4 62 8 87 3 25 9 68 12 95 11 88 19
67 21 -51 1 -63 5 -120 9 -126 5 -7 2 -9 -8 -5 -14 5 -14 2 -4 -18 7 -14 12
-61 12 -114 -1 -50 2 -91 5 -91 3 0 6 -7 6 -15 0 -8 -5 -15 -11 -15 -7 0 -7
-3 -1 -8 10 -7 17 -27 18 -49 0 -10 4 -10 14 -1 10 8 17 7 28 -8 14 -17 14
-17 9 -1 -6 16 -1 18 37 17 24 -1 82 1 129 4 47 3 146 8 220 11 74 3 150 7
168 8 17 2 32 -1 32 -5 0 -5 9 -4 19 2 26 13 34 13 25 -2 -6 -10 -4 -10 7 -2
8 6 41 12 74 13 33 2 84 4 113 5 31 1 52 -2 52 -8 0 -7 3 -8 8 -1 4 6 16 11
27 13 18 2 21 -4 23 -59 2 -44 -1 -59 -9 -53 -9 5 -9 3 -3 -7 5 -8 10 -25 10
-39 1 -14 2 -31 3 -37 1 -8 15 -13 34 -13 18 0 39 -6 46 -12 10 -9 12 -9 7 -1
-5 9 20 12 94 11 73 0 98 -3 94 -11 -5 -8 -2 -7 7 1 19 17 283 17 273 -1 -6
-9 -5 -9 7 0 10 8 69 12 183 12 92 -1 170 2 173 4 2 3 4 50 5 105 l0 100 31
-3 c18 -2 59 -6 92 -9 33 -3 71 -8 85 -11 14 -3 42 -6 62 -7 24 -1 35 -5 31
-12 -4 -6 0 -5 9 1 8 7 18 10 22 6 7 -8 13 -8 84 -11 31 -2 41 -5 36 -14 -6
-10 -4 -10 7 -1 14 14 33 18 26 6 -3 -5 27 -9 65 -10 39 -1 77 -8 86 -15 12
-10 14 -10 8 0 -9 16 6 16 23 0 11 -11 12 -10 6 1 -5 8 -4 12 1 8 5 -3 41 -8
79 -12 79 -8 88 -11 79 -28 -3 -7 0 -5 8 4 8 11 20 14 33 9 11 -4 30 -6 43 -3
13 2 21 0 18 -5 -3 -5 6 -7 19 -4 17 3 25 11 26 26 0 11 2 35 4 51 4 30 8 61
21 180 7 61 11 90 14 90 2 0 6 61 9 123 0 21 5 31 12 26 8 -5 8 -1 0 13 -6 11
-7 23 -4 27 4 3 7 23 8 44 2 37 17 180 21 195 1 4 3 10 4 15 1 4 1 17 0 29 -1
12 4 32 10 44 7 12 8 19 2 16 -9 -6 -6 32 5 63 3 8 5 36 4 63 -2 26 1 47 6 47
4 0 8 21 9 48 0 26 4 70 8 97 4 28 7 59 7 70 0 10 5 26 12 34 10 12 9 13 -2 7
-10 -7 -12 -3 -6 13 4 12 8 39 10 59 4 55 17 175 21 194 3 19 -13 23 -111 33
-56 5 -105 11 -180 20 -16 2 -57 7 -90 10 -33 3 -73 8 -90 10 -16 2 -57 7 -90
10 -33 3 -76 8 -95 10 -81 11 -237 29 -340 40 -30 4 -58 9 -62 11 -4 3 -9 -3
-10 -13 0 -10 -2 -22 -3 -28 -1 -5 -5 -37 -10 -70 -4 -33 -13 -66 -19 -74 -8
-11 -8 -13 2 -7 12 7 17 -6 6 -17 -4 -3 -8 -25 -9 -49 -1 -24 -6 -72 -10 -108
-4 -36 -8 -76 -10 -90 -1 -15 -7 -24 -15 -22 -11 3 -11 0 0 -12 8 -10 10 -28
6 -49 -4 -17 -9 -63 -12 -102 -4 -38 -8 -72 -9 -73 -2 -2 -4 153 -3 345 0 191
-1 401 -1 466 l-1 117 -460 0 -460 0 0 -79 c0 -44 -3 -82 -7 -84 -5 -3 -80 -8
-168 -12 -88 -4 -187 -8 -220 -10 -33 -2 -136 -6 -230 -10 -93 -4 -183 -8
-200 -8 -29 -2 -30 -1 -27 37 2 22 6 49 8 60 2 12 7 37 10 56 3 19 7 45 9 57
4 24 2 25 -120 43 -38 6 -80 13 -92 15 -12 2 -57 8 -100 15 -43 6 -91 13 -108
15 -16 3 -61 10 -100 16 -101 15 -124 18 -181 25 l-51 6 -7 -48 c-3 -27 -9
-62 -12 -79 -3 -16 -7 -41 -9 -55 -2 -14 -4 -27 -5 -30 -2 -3 -2 -8 -2 -11 1
-4 -3 -33 -8 -65 -5 -33 -12 -79 -15 -104 -3 -25 -12 -85 -20 -135 -8 -49 -17
-108 -20 -130 -3 -22 -7 -49 -9 -60 -3 -11 -5 -33 -5 -48 -1 -16 -4 -26 -8
-24 -5 3 -8 -14 -9 -36 0 -52 -16 -162 -32 -229 -1 -5 -2 -17 -2 -29 0 -13 -4
-18 -12 -13 -10 6 -10 5 -2 -7 9 -10 9 -30 2 -69 -5 -30 -9 -65 -10 -78 -1
-53 -11 -6 -14 65 -1 43 -3 78 -4 78 -1 0 -3 27 -6 60 -2 33 -5 77 -7 97 -2
21 1 34 6 31 5 -3 4 4 -2 15 -6 11 -10 38 -9 60 0 21 -2 44 -6 50 -4 7 -1 12
6 12 8 0 9 3 3 8 -5 4 -11 18 -13 31 -3 17 0 21 10 15 10 -6 11 -5 1 7 -6 8
-14 68 -18 134 -4 66 -8 134 -10 150 -1 17 -3 52 -4 79 l-1 48 -117 -7 c-65
-4 -138 -9 -163 -10 -25 -2 -92 -6 -150 -10 -58 -3 -125 -8 -150 -10 -25 -2
-98 -6 -162 -10 -64 -3 -126 -8 -138 -10 -26 -5 -38 21 -21 47 9 15 9 18 1 13
-8 -5 -10 -2 -7 11 3 11 9 58 12 105 l6 87 -48 6 c-26 3 -84 8 -128 12 -44 3
-96 7 -115 9 -19 2 -73 6 -120 10 -47 3 -98 8 -115 10 -16 2 -66 7 -110 10
-44 3 -102 8 -130 11 -56 4 -134 11 -245 19 -41 3 -88 8 -105 10 -16 2 -68 6
-115 10 -47 3 -100 8 -117 11 -27 4 -33 1 -34 -13z"/>
<path d="M3395 2699 c-3 -4 2 -6 10 -5 21 3 28 13 10 13 -9 0 -18 -4 -20 -8z"/>
<path d="M1619 2688 c-5 -18 -6 -38 -1 -34 7 8 12 36 6 36 -2 0 -4 -1 -5 -2z"/>
<path d="M3376 2662 c-3 -4 4 -9 15 -9 23 -2 25 3 4 10 -8 4 -16 3 -19 -1z"/>
<path d="M1616 2622 c-2 -4 -1 -14 4 -22 7 -11 9 -9 7 8 -1 24 -3 26 -11 14z"/>
<path d="M4413 2565 c0 -8 4 -12 9 -9 5 3 6 10 3 15 -9 13 -12 11 -12 -6z"/>
<path d="M5373 2565 c0 -8 3 -13 5 -10 3 3 12 -1 21 -7 10 -8 9 -4 -3 10 -23
26 -23 26 -23 7z"/>
<path d="M4354 2562 c4 -3 14 -7 22 -8 9 -1 13 0 10 4 -4 3 -14 7 -22 8 -9 1
-13 0 -10 -4z"/>
<path d="M2513 2533 c0 -9 4 -10 14 -2 7 6 13 12 13 14 0 1 -6 2 -13 2 -8 0
-14 -6 -14 -14z"/>
<path d="M3770 2540 c0 -5 5 -10 11 -10 5 0 7 5 4 10 -3 6 -8 10 -11 10 -2 0
-4 -4 -4 -10z"/>
<path d="M4010 2539 c0 -5 5 -7 10 -4 6 3 10 8 10 11 0 2 -4 4 -10 4 -5 0 -10
-5 -10 -11z"/>
<path d="M4120 2540 c-12 -7 -10 -9 7 -7 12 0 19 5 17 9 -6 10 -6 10 -24 -2z"/>
<path d="M4210 2540 c0 -5 5 -10 11 -10 5 0 7 5 4 10 -3 6 -8 10 -11 10 -2 0
-4 -4 -4 -10z"/>
<path d="M4414 2526 c1 -8 5 -18 8 -22 4 -3 5 1 4 10 -1 8 -5 18 -8 22 -4 3
-5 -1 -4 -10z"/>
<path d="M2545 2519 c-3 -4 2 -6 10 -5 21 3 28 13 10 13 -9 0 -18 -4 -20 -8z"/>
<path d="M3395 2520 c-3 -5 -1 -10 4 -10 6 0 11 5 11 10 0 6 -2 10 -4 10 -3 0
-8 -4 -11 -10z"/>
<path d="M3630 2520 c0 -5 5 -10 11 -10 5 0 7 5 4 10 -3 6 -8 10 -11 10 -2 0
-4 -4 -4 -10z"/>
<path d="M3817 2515 c-4 -8 -3 -16 1 -19 4 -3 9 4 9 15 2 23 -3 25 -10 4z"/>
<path d="M4250 2520 c0 -5 5 -10 11 -10 5 0 7 5 4 10 -3 6 -8 10 -11 10 -2 0
-4 -4 -4 -10z"/>
<path d="M2655 2510 c-4 -6 1 -7 11 -3 10 4 15 2 11 -4 -3 -5 0 -10 8 -10 11
0 12 4 4 14 -14 15 -26 17 -34 3z"/>
<path d="M1693 2495 c0 -8 4 -12 9 -9 5 3 6 10 3 15 -9 13 -12 11 -12 -6z"/>
<path d="M1930 2500 c0 -5 5 -10 11 -10 5 0 7 5 4 10 -3 6 -8 10 -11 10 -2 0
-4 -4 -4 -10z"/>
<path d="M2216 2498 c3 -5 10 -6 15 -3 13 9 11 12 -6 12 -8 0 -12 -4 -9 -9z"/>
<path d="M2306 2502 c-3 -5 1 -9 9 -9 8 0 12 4 9 9 -3 4 -7 8 -9 8 -2 0 -6 -4
-9 -8z"/>
<path d="M2455 2500 c3 -5 8 -10 11 -10 2 0 4 5 4 10 0 6 -5 10 -11 10 -5 0
-7 -4 -4 -10z"/>
<path d="M3534 2502 c4 -3 14 -7 22 -8 9 -1 13 0 10 4 -4 3 -14 7 -22 8 -9 1
-13 0 -10 -4z"/>
<path d="M3715 2499 c-3 -4 2 -6 10 -5 21 3 28 13 10 13 -9 0 -18 -4 -20 -8z"/>
<path d="M3845 2500 c-3 -6 1 -7 9 -4 18 7 21 14 7 14 -6 0 -13 -4 -16 -10z"/>
<path d="M3894 2502 c4 -3 14 -7 22 -8 9 -1 13 0 10 4 -4 3 -14 7 -22 8 -9 1
-13 0 -10 -4z"/>
<path d="M4030 2500 c0 -5 5 -10 11 -10 5 0 7 5 4 10 -3 6 -8 10 -11 10 -2 0
-4 -4 -4 -10z"/>
<path d="M5385 2500 c-3 -6 1 -7 9 -4 18 7 21 14 7 14 -6 0 -13 -4 -16 -10z"/>
<path d="M5455 2500 c-3 -5 -1 -10 4 -10 6 0 11 5 11 10 0 6 -2 10 -4 10 -3 0
-8 -4 -11 -10z"/>
<path d="M5750 2505 c0 -7 30 -13 34 -7 3 4 -4 9 -15 9 -10 1 -19 0 -19 -2z"/>
<path d="M5816 2498 c3 -4 11 -5 19 -1 21 7 19 12 -4 10 -11 0 -18 -5 -15 -9z"/>
<path d="M6055 2500 c3 -5 8 -10 11 -10 2 0 4 5 4 10 0 6 -5 10 -11 10 -5 0
-7 -4 -4 -10z"/>
<path d="M6090 2500 c0 -5 5 -10 11 -10 5 0 7 5 4 10 -3 6 -8 10 -11 10 -2 0
-4 -4 -4 -10z"/>
<path d="M5914 2486 c1 -8 5 -18 8 -22 4 -3 5 1 4 10 -1 8 -5 18 -8 22 -4 3
-5 -1 -4 -10z"/>
<path d="M297 2475 c-4 -8 -3 -16 1 -19 4 -3 9 4 9 15 2 23 -3 25 -10 4z"/>
<path d="M1645 2480 c-3 -6 1 -7 9 -4 18 7 21 14 7 14 -6 0 -13 -4 -16 -10z"/>
<path d="M2175 2480 c-3 -5 -1 -10 4 -10 6 0 11 5 11 10 0 6 -2 10 -4 10 -3 0
-8 -4 -11 -10z"/>
<path d="M2494 2476 c1 -8 5 -18 8 -22 4 -3 5 1 4 10 -1 8 -5 18 -8 22 -4 3
-5 -1 -4 -10z"/>
<path d="M2600 2485 c0 -2 6 -8 13 -14 10 -8 14 -7 14 2 0 8 -6 14 -14 14 -7
0 -13 -1 -13 -2z"/>
<path d="M6156 2482 c-3 -5 1 -9 9 -9 8 0 12 4 9 9 -3 4 -7 8 -9 8 -2 0 -6 -4
-9 -8z"/>
<path d="M6053 2465 c0 -8 4 -12 9 -9 5 3 6 10 3 15 -9 13 -12 11 -12 -6z"/>
<path d="M370 2459 c0 -5 5 -7 10 -4 6 3 10 8 10 11 0 2 -4 4 -10 4 -5 0 -10
-5 -10 -11z"/>
<path d="M410 2460 c0 -5 5 -10 11 -10 5 0 7 5 4 10 -3 6 -8 10 -11 10 -2 0
-4 -4 -4 -10z"/>
<path d="M450 2459 c0 -5 5 -7 10 -4 6 3 10 8 10 11 0 2 -4 4 -10 4 -5 0 -10
-5 -10 -11z"/>
<path d="M700 2460 c-9 -6 -10 -10 -3 -10 6 0 15 5 18 10 8 12 4 12 -15 0z"/>
<path d="M1765 2460 c-3 -6 1 -7 9 -4 18 7 21 14 7 14 -6 0 -13 -4 -16 -10z"/>
<path d="M1846 2462 c-3 -5 1 -9 9 -9 8 0 12 4 9 9 -3 4 -7 8 -9 8 -2 0 -6 -4
-9 -8z"/>
<path d="M2670 2456 c7 -7 13 -7 20 0 6 6 3 10 -10 10 -13 0 -16 -4 -10 -10z"/>
<path d="M5410 2460 c0 -5 5 -10 11 -10 5 0 7 5 4 10 -3 6 -8 10 -11 10 -2 0
-4 -4 -4 -10z"/>
<path d="M5750 2459 c0 -5 5 -7 10 -4 6 3 10 8 10 11 0 2 -4 4 -10 4 -5 0 -10
-5 -10 -11z"/>
<path d="M5854 2456 c1 -8 5 -18 8 -22 4 -3 5 1 4 10 -1 8 -5 18 -8 22 -4 3
-5 -1 -4 -10z"/>
<path d="M5975 2461 c-3 -5 -2 -12 3 -15 5 -3 9 1 9 9 0 17 -3 19 -12 6z"/>
<path d="M6255 2459 c-3 -4 2 -6 10 -5 21 3 28 13 10 13 -9 0 -18 -4 -20 -8z"/>
<path d="M6145 2440 c-3 -6 1 -7 9 -4 18 7 21 14 7 14 -6 0 -13 -4 -16 -10z"/>
<path d="M295 2421 c-3 -5 -2 -12 3 -15 5 -3 9 1 9 9 0 17 -3 19 -12 6z"/>
<path d="M735 2420 c3 -5 8 -10 11 -10 2 0 4 5 4 10 0 6 -5 10 -11 10 -5 0 -7
-4 -4 -10z"/>
<path d="M3095 2420 c-3 -5 -1 -10 4 -10 6 0 11 5 11 10 0 6 -2 10 -4 10 -3 0
-8 -4 -11 -10z"/>
<path d="M3130 2420 c0 -5 5 -10 11 -10 5 0 7 5 4 10 -3 6 -8 10 -11 10 -2 0
-4 -4 -4 -10z"/>
<path d="M3206 2422 c-3 -5 1 -9 9 -9 8 0 12 4 9 9 -3 4 -7 8 -9 8 -2 0 -6 -4
-9 -8z"/>
<path d="M946 2398 c3 -5 10 -6 15 -3 13 9 11 12 -6 12 -8 0 -12 -4 -9 -9z"/>
<path d="M1019 2408 c-5 -18 -6 -38 -1 -34 7 8 12 36 6 36 -2 0 -4 -1 -5 -2z"/>
<path d="M1350 2399 c0 -5 5 -7 10 -4 6 3 10 8 10 11 0 2 -4 4 -10 4 -5 0 -10
-5 -10 -11z"/>
<path d="M1755 2400 c-3 -5 -1 -10 4 -10 6 0 11 5 11 10 0 6 -2 10 -4 10 -3 0
-8 -4 -11 -10z"/>
<path d="M3246 2402 c-3 -5 1 -9 9 -9 8 0 12 4 9 9 -3 4 -7 8 -9 8 -2 0 -6 -4
-9 -8z"/>
<path d="M6035 2400 c-3 -5 -1 -10 4 -10 6 0 11 5 11 10 0 6 -2 10 -4 10 -3 0
-8 -4 -11 -10z"/>
<path d="M896 2378 c3 -4 11 -5 19 -1 21 7 19 12 -4 10 -11 0 -18 -5 -15 -9z"/>
<path d="M1113 2365 c0 -8 4 -12 9 -9 5 3 6 10 3 15 -9 13 -12 11 -12 -6z"/>
<path d="M1153 2367 c0 -8 6 -14 14 -14 9 0 10 4 2 14 -6 7 -12 13 -14 13 -1
0 -2 -6 -2 -13z"/>
<path d="M959 2368 c-5 -18 -6 -38 -1 -34 7 8 12 36 6 36 -2 0 -4 -1 -5 -2z"/>
<path d="M1550 2361 c0 -6 4 -13 10 -16 6 -3 7 1 4 9 -7 18 -14 21 -14 7z"/>
<path d="M1457 2343 c-9 -8 12 -33 27 -33 6 0 3 5 -7 11 -9 6 -15 14 -12 20 7
10 2 12 -8 2z"/>
<path d="M4850 2340 c0 -5 5 -10 11 -10 5 0 7 5 4 10 -3 6 -8 10 -11 10 -2 0
-4 -4 -4 -10z"/>
<path d="M4895 2340 c-3 -5 -1 -10 4 -10 6 0 11 5 11 10 0 6 -2 10 -4 10 -3 0
-8 -4 -11 -10z"/>
<path d="M4526 2322 c-3 -5 1 -9 9 -9 8 0 12 4 9 9 -3 4 -7 8 -9 8 -2 0 -6 -4
-9 -8z"/>
<path d="M4593 2315 c0 -8 4 -12 9 -9 5 3 6 10 3 15 -9 13 -12 11 -12 -6z"/>
<path d="M4630 2256 c0 -2 8 -10 18 -17 15 -13 16 -12 3 4 -13 16 -21 21 -21
13z"/>
<path d="M4869 2243 c-13 -16 -12 -17 4 -4 9 7 17 15 17 17 0 8 -8 3 -21 -13z"/>
<path d="M1320 2240 c-9 -6 -10 -10 -3 -10 6 0 15 5 18 10 8 12 4 12 -15 0z"/>
<path d="M5104 2242 c4 -3 14 -7 22 -8 9 -1 13 0 10 4 -4 3 -14 7 -22 8 -9 1
-13 0 -10 -4z"/>
<path d="M4475 2231 c-3 -5 -2 -12 3 -15 5 -3 9 1 9 9 0 17 -3 19 -12 6z"/>
</g>
</svg>
